<svg xmlns="http://www.w3.org/2000/svg" width="33.546" height="21.03" viewBox="0 0 33.546 21.03">
  <path id="brand_behance" data-name="brand behance" d="M13.511,84.823a4.42,4.42,0,0,0,2.819-4.31c0-4.112-3.063-5.113-6.6-5.113H0V96.04H10.005c3.751,0,7.274-1.8,7.274-5.993A4.973,4.973,0,0,0,13.511,84.823Zm-8.975-5.9H8.794c1.637,0,3.11.46,3.11,2.359,0,1.753-1.147,2.458-2.766,2.458h-4.6V78.923Zm4.851,13.61H4.537V86.85H9.481c2,0,3.261.833,3.261,2.947C12.743,91.881,11.234,92.534,9.388,92.534ZM30.267,78.516H21.9V76.483h8.369Zm3.279,10.267c0-4.42-2.586-8.107-7.274-8.107-4.554,0-7.647,3.424-7.647,7.909,0,4.653,2.929,7.845,7.647,7.845,3.57,0,5.882-1.607,6.994-5.026H29.644c-.39,1.275-2,1.951-3.244,1.951-2.405,0-3.669-1.409-3.669-3.8h10.78C33.528,89.307,33.546,89.045,33.546,88.783ZM22.736,86.966a3.208,3.208,0,0,1,3.407-3.191c2.062,0,3.1,1.211,3.273,3.191Z" transform="translate(0 -75.4)" fill="#fff"/>
</svg>
