<svg xmlns="http://www.w3.org/2000/svg" width="21.035" height="21.03" viewBox="0 0 21.035 21.03">
  <path id="brand_instagram" data-name="brand instagram" d="M10.445,36.948a5.392,5.392,0,1,0,5.392,5.392A5.383,5.383,0,0,0,10.445,36.948Zm0,8.9A3.505,3.505,0,1,1,13.95,42.34,3.512,3.512,0,0,1,10.445,45.845Zm6.87-9.118a1.258,1.258,0,1,1-1.258-1.258A1.255,1.255,0,0,1,17.315,36.728ZM20.886,38a6.224,6.224,0,0,0-1.7-4.406,6.265,6.265,0,0,0-4.406-1.7c-1.736-.1-6.94-.1-8.677,0A6.256,6.256,0,0,0,1.7,33.593,6.244,6.244,0,0,0,0,38c-.1,1.736-.1,6.94,0,8.677a6.224,6.224,0,0,0,1.7,4.406,6.273,6.273,0,0,0,4.406,1.7c1.736.1,6.94.1,8.677,0a6.224,6.224,0,0,0,4.406-1.7,6.265,6.265,0,0,0,1.7-4.406C20.984,44.94,20.984,39.74,20.886,38ZM18.643,48.539a3.549,3.549,0,0,1-2,2c-1.384.549-4.669.422-6.2.422s-4.819.122-6.2-.422a3.549,3.549,0,0,1-2-2c-.549-1.384-.422-4.669-.422-6.2s-.122-4.819.422-6.2a3.549,3.549,0,0,1,2-2c1.384-.549,4.669-.422,6.2-.422s4.819-.122,6.2.422a3.549,3.549,0,0,1,2,2c.549,1.384.422,4.669.422,6.2S19.192,47.159,18.643,48.539Z" transform="translate(0.075 -31.825)" fill="#fff"/>
</svg>
